<?xml version="1.0" encoding="utf-8"?>
<!-- Generator: Adobe Illustrator 17.1.0, SVG Export Plug-In . SVG Version: 6.00 Build 0)  -->
<!DOCTYPE svg PUBLIC "-//W3C//DTD SVG 1.1//EN" "http://www.w3.org/Graphics/SVG/1.1/DTD/svg11.dtd">
<svg version="1.1" id="main_menu_icon" xmlns="http://www.w3.org/2000/svg" xmlns:xlink="http://www.w3.org/1999/xlink" x="0px"
	 y="0px" viewBox="0 0 612 792" enable-background="new 0 0 612 792" xml:space="preserve">
<title>Navigation</title>
<desc>This is the navigation menu icon</desc>
<path fill="#FFFFFF" d="M522.6,612.4c-21.4,21.4-56.8,21.4-78.2,0L89.8,257.8c-22.3-20.5-22.3-55.9,0-78.2l0,0
	c21.4-21.4,56.8-21.4,78.2,0l354.5,354.5C544,555.6,544,590.9,522.6,612.4L522.6,612.4z"/>
<path fill="#FFFFFF" d="M522.2,180c21.4,21.4,21.4,56.8,0,78.2L167.7,612.7c-21.5,21.4-56.9,21.4-78.2,0l0,0
	C68,591.3,68,556,89.5,534.5L444,180C464.5,157.7,499.9,157.7,522.2,180L522.2,180z"/>
</svg>
