<?xml version="1.0" encoding="utf-8"?>
<!-- Generator: Adobe Illustrator 17.1.0, SVG Export Plug-In . SVG Version: 6.00 Build 0)  -->
<!DOCTYPE svg PUBLIC "-//W3C//DTD SVG 1.1//EN" "http://www.w3.org/Graphics/SVG/1.1/DTD/svg11.dtd">
<svg version="1.1" id="main_search_icon" xmlns="http://www.w3.org/2000/svg" xmlns:xlink="http://www.w3.org/1999/xlink" x="0px"
	 y="0px" viewBox="0 0 612 792" enable-background="new 0 0 612 792" xml:space="preserve">
<title>Search</title>
<desc>This is the search menu icon</desc>
<path class="path_1" d="M604.5,605.5l-3-3l0,0L452.2,454.8c21.1-34.7,33.2-76.9,33.2-120.6C486.9,200,378.4,91.5,244.2,90h-1.5
	C110,90,1.5,197,0,331.2s107,242.7,241.2,244.2h1.5c45.2,0,85.9-12.1,122.1-33.2l147.7,147.7l0,0l3,3c10.6,10.6,28.6,10.6,40.7,0
	l46.7-46.7C615,634.2,615,616.1,604.5,605.5z M241.2,513.6c-99.5-1.5-179.4-82.9-179.4-182.4s81.4-179.4,180.9-179.4h1.5
	c48.2,0,93.5,19.6,128.1,54.3c33.2,34.7,52.8,79.9,52.8,128.1s-19.6,93.5-52.8,126.6C336.1,494,290.9,513.6,241.2,513.6L241.2,513.6
	z"/>
</svg>
