<svg id="main_menu_icon" viewBox="0 0 612 792">
	<title>Search Icon</title>
	<desc>This is the search icon</desc>
	<g>
		<polygon class="p2"
			points=
			"367.7,350.2
			367.7,319.6
			258.3,319.6
			258.3,210.2
			227.7,210.2
			227.7,319.6
			118.3,319.6
			118.3,350.2
			227.7,350.2 
			227.7,459.6
			258.3,459.6
			258.3,350.2"
			/>
		
		<path class="p1"
			d=
			"M611.6,
			623L449.8,
			461.2C473,
			424,486.4,
			380.1,486.4,
			333c0-134.2-108.8-243-243-243S0.4,
			198.8,0.4,
			333s108.8,
			243,
			243,
			243
			c47.1,
			0,
			91-13.4,
			128.2-36.6l161.8,
			161.8L611.6,
			623z M62.4,333c0-100,
			81-181,
			181-181s181,
			81,181,
			181s-81,
			181-181,
			181
			S62.4,
			433,
			62.4,
			333z"
			/>
	</g>
</svg>
