
<svg id="svgelem" onclick="menu(evt)" xmlns="http://www.w3.org/2000/svg"
     xmlns:xlink="http://www.w3.org/1999/xlink"
     xml:space="preserve" viewBox="0 0 612 792" enable-background="new 0 0 612 792">

   
<path class="p1" d="M611.6,623L449.8,461.2C473,424,486.4,380.1,486.4,333c0-134.2-108.8-243-243-243S0.4,198.8,0.4,333s108.8,243,243,243
	c47.1,0,91-13.4,128.2-36.6l161.8,161.8L611.6,623z M62.4,333c0-100,81-181,181-181s181,81,181,181s-81,181-181,181
	S62.4,433,62.4,333z" />
    
         

<script type="application/ecmascript">
<![CDATA[
    function menu(evt) {

        var trigger = document.getElementById("searchtransform");

        if(typeof clicked === 'undefined') {

            clicked = true;

            trigger.setAttribute("from", "0 240 330");
            trigger.setAttribute("to", "45 240 330");

        } else {

            delete clicked;

            trigger.setAttribute("from", "45 240 330");
            trigger.setAttribute("to", "0 240 330");
        }
    }
]]>
</script>


<polygon class="p2" points="327.7,350.2 327.7,319.6 258.3,319.6 258.3,250.2 227.7,250.2 227.7,319.6 158.3,319.6 158.3,350.2 227.7,350.2
	227.7,419.6 258.3,419.6 258.3,350.2 ">  
	<animateTransform
    id="searchtransform"
    attributeName="transform"
    begin="click"
    dur="0.5s"
    type="rotate"
    additive="replace"
    from="0 240 330"
    to="45 240 330"
    fill="freeze"
    /></polygon>
       
</svg>

